<mxfile host="app.diagrams.net" agent="Mozilla/5.0 (Windows NT 10.0; Win64; x64) AppleWebKit/537.36 (KHTML, like Gecko) Chrome/138.0.0.0 Safari/537.36" version="28.0.7">
  <diagram name="Page-1" id="rh9U9RWjR75RWXNF3iLO">
    <mxGraphModel dx="1019" dy="564" grid="1" gridSize="10" guides="1" tooltips="1" connect="1" arrows="1" fold="1" page="1" pageScale="1" pageWidth="850" pageHeight="1100" math="0" shadow="0">
      <root>
        <mxCell id="0" />
        <mxCell id="1" parent="0" />
        <mxCell id="17yeOu3LnLAVFfb8uXMw-1" value="DATASET" style="shape=cylinder3;whiteSpace=wrap;html=1;boundedLbl=1;backgroundOutline=1;size=15;fillColor=light-dark(#FFFFFF,#6F0D96);" parent="1" vertex="1">
          <mxGeometry x="150" y="166" width="60" height="80" as="geometry" />
        </mxCell>
        <mxCell id="17yeOu3LnLAVFfb8uXMw-2" value="" style="shape=flexArrow;endArrow=classic;html=1;rounded=0;exitX=1.027;exitY=0.401;exitDx=0;exitDy=0;exitPerimeter=0;entryX=0;entryY=0.5;entryDx=0;entryDy=0;fillColor=light-dark(#FFFFFF,#6F0D96);" parent="1" source="17yeOu3LnLAVFfb8uXMw-1" target="17yeOu3LnLAVFfb8uXMw-3" edge="1">
          <mxGeometry width="50" height="50" relative="1" as="geometry">
            <mxPoint x="210" y="104" as="sourcePoint" />
            <mxPoint x="260" y="100" as="targetPoint" />
          </mxGeometry>
        </mxCell>
        <mxCell id="17yeOu3LnLAVFfb8uXMw-3" value="DATA&lt;div&gt;PROCESSING&lt;/div&gt;" style="rounded=1;whiteSpace=wrap;html=1;fillColor=light-dark(#FFFFFF,#6F0D96);" parent="1" vertex="1">
          <mxGeometry x="260" y="166" width="120" height="60" as="geometry" />
        </mxCell>
        <mxCell id="17yeOu3LnLAVFfb8uXMw-4" value="SAMPLING&lt;div&gt;TECHNIQUES&lt;/div&gt;" style="rounded=1;whiteSpace=wrap;html=1;fillColor=light-dark(#FFFFFF,#6F0D96);" parent="1" vertex="1">
          <mxGeometry x="260" y="266" width="120" height="60" as="geometry" />
        </mxCell>
        <mxCell id="17yeOu3LnLAVFfb8uXMw-5" value="" style="shape=flexArrow;endArrow=classic;html=1;rounded=0;exitX=0.5;exitY=1;exitDx=0;exitDy=0;entryX=0.5;entryY=0;entryDx=0;entryDy=0;fillColor=light-dark(#FFFFFF,#6F0D96);" parent="1" source="17yeOu3LnLAVFfb8uXMw-3" target="17yeOu3LnLAVFfb8uXMw-4" edge="1">
          <mxGeometry width="50" height="50" relative="1" as="geometry">
            <mxPoint x="340" y="280" as="sourcePoint" />
            <mxPoint x="390" y="230" as="targetPoint" />
          </mxGeometry>
        </mxCell>
        <mxCell id="17yeOu3LnLAVFfb8uXMw-6" value="CLASSIFICATION&lt;div&gt;ALGORITHM&lt;/div&gt;" style="rounded=1;whiteSpace=wrap;html=1;fillColor=light-dark(#FFFFFF,#6F0D96);" parent="1" vertex="1">
          <mxGeometry x="260" y="362" width="120" height="60" as="geometry" />
        </mxCell>
        <mxCell id="17yeOu3LnLAVFfb8uXMw-7" value="" style="shape=flexArrow;endArrow=classic;html=1;rounded=0;exitX=0.5;exitY=1;exitDx=0;exitDy=0;entryX=0.5;entryY=0;entryDx=0;entryDy=0;fillColor=light-dark(#FFFFFF,#6F0D96);" parent="1" source="17yeOu3LnLAVFfb8uXMw-4" target="17yeOu3LnLAVFfb8uXMw-6" edge="1">
          <mxGeometry width="50" height="50" relative="1" as="geometry">
            <mxPoint x="339" y="330" as="sourcePoint" />
            <mxPoint x="390" y="334" as="targetPoint" />
          </mxGeometry>
        </mxCell>
        <mxCell id="17yeOu3LnLAVFfb8uXMw-8" value="PREDICTION" style="rounded=1;whiteSpace=wrap;html=1;fillColor=light-dark(#FFFFFF,#6F0D96);" parent="1" vertex="1">
          <mxGeometry x="260" y="456" width="120" height="50" as="geometry" />
        </mxCell>
        <mxCell id="17yeOu3LnLAVFfb8uXMw-9" value="" style="shape=flexArrow;endArrow=classic;html=1;rounded=0;entryX=0.5;entryY=0;entryDx=0;entryDy=0;exitX=0.5;exitY=1;exitDx=0;exitDy=0;fillColor=light-dark(#FFFFFF,#6F0D96);" parent="1" source="17yeOu3LnLAVFfb8uXMw-6" target="17yeOu3LnLAVFfb8uXMw-8" edge="1">
          <mxGeometry width="50" height="50" relative="1" as="geometry">
            <mxPoint x="340" y="434" as="sourcePoint" />
            <mxPoint x="390" y="438" as="targetPoint" />
          </mxGeometry>
        </mxCell>
        <mxCell id="17yeOu3LnLAVFfb8uXMw-10" value="COMPREHENSIVE&lt;div&gt;EVALUATION&lt;/div&gt;" style="rounded=1;whiteSpace=wrap;html=1;fillColor=light-dark(#FFFFFF,#6F0D96);" parent="1" vertex="1">
          <mxGeometry x="260" y="540" width="120" height="60" as="geometry" />
        </mxCell>
        <mxCell id="17yeOu3LnLAVFfb8uXMw-11" value="" style="shape=flexArrow;endArrow=classic;html=1;rounded=0;exitX=0.5;exitY=1;exitDx=0;exitDy=0;entryX=0.5;entryY=0;entryDx=0;entryDy=0;fillColor=light-dark(#FFFFFF,#6F0D96);" parent="1" source="17yeOu3LnLAVFfb8uXMw-8" target="17yeOu3LnLAVFfb8uXMw-10" edge="1">
          <mxGeometry width="50" height="50" relative="1" as="geometry">
            <mxPoint x="339" y="538" as="sourcePoint" />
            <mxPoint x="390" y="542" as="targetPoint" />
          </mxGeometry>
        </mxCell>
        <mxCell id="17yeOu3LnLAVFfb8uXMw-12" value="" style="shape=flexArrow;endArrow=classic;html=1;rounded=0;exitX=1;exitY=0.5;exitDx=0;exitDy=0;fillColor=light-dark(#FFFFFF,#6F0D96);entryX=-0.02;entryY=0.51;entryDx=0;entryDy=0;entryPerimeter=0;" parent="1" source="17yeOu3LnLAVFfb8uXMw-6" target="17yeOu3LnLAVFfb8uXMw-13" edge="1">
          <mxGeometry width="50" height="50" relative="1" as="geometry">
            <mxPoint x="440" y="410" as="sourcePoint" />
            <mxPoint x="450" y="404" as="targetPoint" />
          </mxGeometry>
        </mxCell>
        <mxCell id="17yeOu3LnLAVFfb8uXMw-13" value="GRADIENT BOOSTING&lt;div&gt;K-NEAREST NEIGHBORS&lt;/div&gt;&lt;div&gt;LOGISTIC REGRESSION&lt;/div&gt;&lt;div&gt;RANDOM FOREST&lt;/div&gt;&lt;div&gt;SVM&lt;/div&gt;" style="rounded=1;whiteSpace=wrap;html=1;fillColor=light-dark(#FFFFFF,#6F0D96);" parent="1" vertex="1">
          <mxGeometry x="430" y="347" width="170" height="90" as="geometry" />
        </mxCell>
        <mxCell id="17yeOu3LnLAVFfb8uXMw-14" value="" style="shape=flexArrow;endArrow=classic;html=1;rounded=0;exitX=1;exitY=0.5;exitDx=0;exitDy=0;fillColor=light-dark(#FFFFFF,#6F0D96);" parent="1" source="17yeOu3LnLAVFfb8uXMw-10" target="17yeOu3LnLAVFfb8uXMw-15" edge="1">
          <mxGeometry width="50" height="50" relative="1" as="geometry">
            <mxPoint x="399" y="602" as="sourcePoint" />
            <mxPoint x="480" y="602" as="targetPoint" />
          </mxGeometry>
        </mxCell>
        <mxCell id="17yeOu3LnLAVFfb8uXMw-15" value="F1-SCORE&lt;div&gt;ACCURACY&lt;/div&gt;" style="rounded=1;whiteSpace=wrap;html=1;fillColor=light-dark(#FFFFFF,#6F0D96);" parent="1" vertex="1">
          <mxGeometry x="430" y="540" width="170" height="60" as="geometry" />
        </mxCell>
        <mxCell id="CBdaHaxBVKPiTaeVaRIZ-1" value="" style="shape=flexArrow;endArrow=classic;html=1;rounded=0;exitX=1;exitY=0.5;exitDx=0;exitDy=0;fillColor=light-dark(#FFFFFF,#6F0D96);entryX=0;entryY=0.5;entryDx=0;entryDy=0;" parent="1" source="17yeOu3LnLAVFfb8uXMw-4" target="CBdaHaxBVKPiTaeVaRIZ-2" edge="1">
          <mxGeometry width="50" height="50" relative="1" as="geometry">
            <mxPoint x="400" y="299" as="sourcePoint" />
            <mxPoint x="440" y="299" as="targetPoint" />
          </mxGeometry>
        </mxCell>
        <mxCell id="CBdaHaxBVKPiTaeVaRIZ-2" value="SMOTE" style="rounded=1;whiteSpace=wrap;html=1;fillColor=light-dark(#FFFFFF,#6F0D96);" parent="1" vertex="1">
          <mxGeometry x="429" y="269" width="171" height="54" as="geometry" />
        </mxCell>
      </root>
    </mxGraphModel>
  </diagram>
</mxfile>
